<svg width="130" height="159" fill="none" xmlns="http://www.w3.org/2000/svg"><path d="M87.13 33.27c8.12 0 14.95-5.55 16.9-13.05l5.47.81a2.16 2.16 0 0 0 .64-4.27l-5.55-.82v-.68s-.46-6.52-1.08-9.24c-.62-2.72-2.54-3.3-2.54-3.3A111.85 111.85 0 0 0 78.6.3c-2.6 0-3.16 1.33-3.16 1.33l-3.15 5-.23.36-.02.04a17.46 17.46 0 0 0 15.1 26.24ZM125.53 72.58 98.8 70.4l-9.24-21.12s-.46-2.77-6.01-8.47c-5.55-5.7-16.8-3.4-16.8-3.4s-23.89 4.48-31.75 6.33c-7.86 1.85-8.16 9.86-8.16 9.86l-.64 4.52-15.17-2.94a2.99 2.99 0 0 0-3.52 2.37L.1 95.8a3 3 0 0 0 2.37 3.52l51.2 9.92.35.04c-.73.1-1.3-.04-1.3-.04l-9.4-1.85-3.07 17.1-23.56 20.37a7.41 7.41 0 0 0 4.63 13.23 7.4 7.4 0 0 0 5.22-2.15s27.73-22.04 29.58-23.59c1.85-1.54 2.77-3.85 2.77-3.85s4.54-13.95 5.78-16.87c.85-2 4.93-1.08 4.93-1.08l22.89 8.63 7.61 29.06a7.43 7.43 0 1 0 14.59-2.7c-.84-4.97-4.6-27.05-5.56-31.83-1.08-5.4-4.62-6.94-4.62-6.94S83.23 95.22 81.84 94.44c-1.38-.77-1.08-2.77-1.08-2.77l3.93-14.33 2.78 5.85s1.62 3.28 4.08 3.4l33.36.82a7.43 7.43 0 0 0 .63-14.83ZM54.1 57.3l-1.79 5.88 9.9 1.92L42 61.19l.55-2.5 11.55-1.38Zm-2.25 45.47L6.55 94l6.27-32.35 12.54 2.43-1.62 11.56-.64 4.41v.08l-.03.13a7.43 7.43 0 1 0 14.74.01l2.9-13.22 17.42 3.37-6.28 32.36ZM19.05 11.5h38.03a2 2 0 0 0 2-1.98 2 2 0 0 0-2-2H19.05a2 2 0 0 0-2 2 2 2 0 0 0 2 1.99ZM32.08 17.52a2 2 0 0 0-2 2 2 2 0 0 0 2 1.98h22.96a2 2 0 0 0 2-1.99 2 2 0 0 0-2-1.99H32.08Z" fill="#fff"/></svg>